<svg version="1.2" xmlns="http://www.w3.org/2000/svg" viewBox="0 0 120 42" width="120" height="42">
	<title>logo-dark-svg</title>
	<defs>
		<clipPath clipPathUnits="userSpaceOnUse" id="cp1">
			<path d="m10.07 10.07h21.82v21.82h-21.82z"/>
		</clipPath>
	</defs>
	<style>
		tspan { white-space:pre } 
		.t0 { font-size: 16px;fill: #000000;font-weight: 700;font-family: "DejaVuSans-Bold", "DejaVu Sans" } 
		.s1 { fill: #3554d1 } 
		.s2 { fill: #ffffff } 
	</style>
	<text id="AmazFit" style="transform: matrix(1,0,0,1,44.098,27.566)" >
		<tspan x="0" y="0" class="t0">A</tspan><tspan  y="0" class="t0">m</tspan><tspan  y="0" class="t0">a</tspan><tspan  y="0" class="t0">z</tspan><tspan  y="0" class="t0">F</tspan><tspan  y="0" class="t0">i</tspan><tspan  y="0" class="t0">t</tspan><tspan  y="0" class="t0">
</tspan>
	</text>
	<path id="Layer" class="s1" d="m0 18c0-9.9 8.1-18 18-18h6c9.9 0 18 8.1 18 18v6c0 9.9-8.1 18-18 18h-6c-9.9 0-18-8.1-18-18z"/>
	<g id="Clip-Path" clip-path="url(#cp1)">
		<g id="Layer">
			<path id="Layer" fill-rule="evenodd" class="s2" d="m25.3 26.3c-0.8 1-1.6 1.9-2.2 2.6v2.3c0 0.4-0.3 0.7-0.6 0.7h-3c-0.3 0-0.6-0.3-0.6-0.7v-2.3c-0.7-0.7-1.4-1.6-2.2-2.6-2.6-3.4-3.9-6.1-3.9-8 0-4.5 3.7-8.2 8.2-8.2 4.5 0 8.2 3.7 8.2 8.2 0 1.9-1.3 4.6-3.9 8zm-1.7-14.4q0.2 0.3 0.4 0.8c0.7 1.5 1.1 3.5 1.1 5.6q0 2.5-1.5 7h0.8c1.9-2.5 3.5-5.2 3.5-7 0-2.9-1.8-5.4-4.3-6.4zm-1.8 17.4h-1.6v1.3h1.6zm1.6-2.8c0 0-4.1 0-4.1 0q0 0 0 0h-0.7q0.7 0.8 1.2 1.5h2.4q0.6-0.7 1.2-1.5zm-4.2-13.3c-0.7 1.3-1 3.1-1 5.1 0 1.5 0.5 3.9 1.6 6.9h2.4c1-3 1.6-5.4 1.6-6.9 0-2-0.4-3.8-1-5.1-0.5-1.2-1.2-1.9-1.8-1.9-0.6 0-1.3 0.7-1.8 1.9zm-1.6 12h0.8q-1.5-4.4-1.5-6.9c0-2.2 0.4-4.2 1.1-5.7q0.2-0.4 0.4-0.8c-2.6 1.1-4.3 3.6-4.3 6.5 0 1.5 1.2 3.9 3.5 6.9z"/>
		</g>
	</g>
</svg>